<?xml version="1.0" standalone="no"?>
<!DOCTYPE svg PUBLIC "-//W3C//DTD SVG 1.1//EN" "http://www.w3.org/Graphics/SVG/1.1/DTD/svg11.dtd" >
<svg xmlns="http://www.w3.org/2000/svg">
<metadata></metadata>
<defs>
<font id="univoxregular" horiz-adv-x="6107" >
<font-face units-per-em="2048" ascent="1520" descent="-528" />
<missing-glyph horiz-adv-x="3641" />
<glyph unicode="&#x28;C&#x29;" horiz-adv-x="1501" d="M164 289v809q0 158 66.5 223t220.5 65h600q154 0 220 -65.5t66 -222.5v-809q0 -158 -66.5 -223.5t-219.5 -65.5h-600q-154 0 -220.5 65.5t-66.5 223.5zM268 276q0 -104 41 -146t137 -42h611q94 0 136 42t42 146v832q0 104 -42 146t-136 42h-611q-96 0 -137 -42t-41 -146 v-832zM557 545v315q0 59 26.5 88t86.5 29h260v-86h-232q-41 0 -41 -41v-287q0 -29 8.5 -37t34.5 -8h232v-90h-262q-59 0 -86 28.5t-27 88.5z" />
<glyph unicode="&#x28;R&#x29;" horiz-adv-x="1501" d="M164 289v809q0 158 66.5 223t220.5 65h600q154 0 220 -65.5t66 -222.5v-809q0 -158 -66.5 -223.5t-219.5 -65.5h-600q-154 0 -220.5 65.5t-66.5 223.5zM268 276q0 -104 41 -146t137 -42h611q94 0 136 42t42 146v832q0 104 -42 146t-136 42h-611q-96 0 -137 -42t-41 -146 v-832zM512 428v549h371q49 0 70.5 -22.5t21.5 -69.5v-121q0 -47 -19.5 -66.5t-48.5 -23.5q33 -4 55.5 -18.5t22.5 -51.5v-176h-92v158q0 23 -13.5 33t-62.5 10h-217v-201h-88zM600 707h213q49 0 60.5 16t11.5 41v100q0 20 -8.5 28.5t-36.5 8.5h-240v-194z" />
<glyph horiz-adv-x="0" />
<glyph unicode="&#xd;" horiz-adv-x="3641" />
<glyph horiz-adv-x="3641" />
<glyph unicode=" "  horiz-adv-x="3641" />
<glyph unicode="&#x09;" horiz-adv-x="3641" />
<glyph unicode="&#xa0;" horiz-adv-x="3641" />
<glyph unicode="!" horiz-adv-x="501" d="M164 0v309h174v-309h-174zM164 432v954h174v-954h-174z" />
<glyph unicode="&#x22;" horiz-adv-x="958" d="M164 838v632h151v-632h-151zM164 838zM643 838v632h151v-632h-151z" />
<glyph unicode="#" horiz-adv-x="1667" d="M61 401v101h379l80 385h-375v102h396l84 397h127l-84 -397h467l84 397h129l-84 -397h342v-102h-363l-82 -385h367v-101h-387l-84 -401h-127l84 401h-469l-84 -401h-125l84 401h-359zM565 502h469l80 385h-467z" />
<glyph unicode="$" horiz-adv-x="3993" d="M150 174v164h3475q37 0 50 14.5t13 55.5v192q0 16 -10 28.5t-45 12.5h-3305q-94 0 -136 47t-42 125v199q0 104 45 154.5t161 50.5h1606v172h156v-172h1732v-158h-3467q-39 0 -51.5 -16.5t-12.5 -57.5v-137q0 -29 9.5 -40t40.5 -11h3313q92 0 134 -47.5t42 -120.5v-252 q0 -104 -46 -153.5t-162 -49.5h-1532v-174h-156v174h-1812z" />
<glyph unicode="%" horiz-adv-x="6297" d="M122 880v246q0 143 102.5 202.5t321.5 59.5h1960q219 0 322.5 -59.5t103.5 -202.5v-246q0 -143 -103.5 -202.5t-322.5 -59.5h-1960q-219 0 -321.5 59.5t-102.5 202.5zM123 0zM241 880q0 -37 13.5 -64.5t48 -45t93 -25.5t150.5 -8h1960q92 0 151.5 8t94.5 25.5t48 45 t13 64.5v246q0 37 -13 63.5t-48 45t-94.5 26.5t-151.5 8h-1960q-92 0 -150.5 -8t-93 -26.5t-48 -45t-13.5 -63.5v-246zM2269 96l1729 1293l65 -95l-1726 -1294zM3364 262v246q0 143 102.5 202.5t321.5 59.5h1960q219 0 322.5 -59.5t103.5 -202.5v-246q0 -143 -103.5 -202.5 t-322.5 -59.5h-1960q-219 0 -321.5 59.5t-102.5 202.5zM3483 262q0 -37 13.5 -64.5t48 -45t93 -25.5t150.5 -8h1960q92 0 151.5 8t94.5 25.5t48 45t13 64.5v246q0 37 -13 63.5t-48 45t-94.5 26.5t-151.5 8h-1960q-92 0 -150.5 -8t-93 -26.5t-48 -45t-13.5 -63.5v-246z" />
<glyph unicode="&#x26;" horiz-adv-x="5015" d="M123 467v455q0 127 46 216t141.5 144t239.5 81t341 26h893v-175h-893q-178 0 -293 -17t-182.5 -54t-93 -92.5t-25.5 -128.5v-121l2369 -277l2302 690v-174l-1886 -565l1886 -211v-174l-2302 262l-1118 -336q-29 -10 -51 -13t-47 -3h-559q-197 0 -341 25.5t-239.5 81 t-141.5 144.5t-46 216zM297 467q0 -76 25.5 -131t93 -91t182.5 -53.5t293 -17.5h573q23 0 35 2t33 8l719 215l-1954 230v-162z" />
<glyph unicode="'" horiz-adv-x="479" d="M164 838v632h151v-632h-151z" />
<glyph unicode="(" horiz-adv-x="792" d="M266 145v1088q0 121 32 205t91.5 136t146.5 76.5t195 26.5v-131q-90 -4 -151.5 -17t-98.5 -46t-53 -92.5t-16 -157.5v-1088q0 -98 16 -157.5t53 -92t98.5 -45t151.5 -16.5v-131q-109 2 -195.5 26.5t-146 77t-91.5 135.5t-32 203z" />
<glyph unicode=")" horiz-adv-x="792" d="M61 -166q90 4 151.5 16.5t98.5 45t53.5 92t16.5 157.5v1088q0 98 -16.5 157.5t-53.5 92.5t-98 46t-152 17v131q109 -2 195 -26.5t146.5 -76.5t92 -136t31.5 -205v-1088q0 -121 -31.5 -203.5t-92 -135t-146.5 -77t-195 -26.5v131z" />
<glyph unicode="*" horiz-adv-x="1320" d="M164 1065l37 113l411 -146l-10 436h117l-8 -434l409 144l37 -111l-414 -125l263 -348l-95 -68l-249 357l-248 -359l-95 70l263 346z" />
<glyph unicode="+" horiz-adv-x="1363" d="M164 645v143h446v447h144v-447h446v-143h-446v-448h-144v448h-446z" />
<glyph unicode="," horiz-adv-x="567" d="M164 -160l53 185q8 29 10 55t2 53v176h174v-186q0 -47 -20 -107l-59 -176h-160z" />
<glyph unicode="-" horiz-adv-x="1374" d="M164 639v182h1046v-182h-1046z" />
<glyph unicode="." horiz-adv-x="501" d="M164 0v354h174v-354h-174z" />
<glyph unicode="/" horiz-adv-x="2803" d="M164 -154l2371 1784l105 -139l-2370 -1786z" />
<glyph unicode="0" horiz-adv-x="5431" d="M123 467v455q0 127 46 216t141.5 144t239.5 81t341 26h3649q197 0 341.5 -26t239.5 -81t141 -144t46 -216v-455q0 -127 -46 -216t-141 -144.5t-239.5 -81t-341.5 -25.5h-3649q-197 0 -341 25.5t-239.5 81t-141.5 144.5t-46 216zM297 467q0 -76 25.5 -131t93 -91 t182.5 -53.5t293 -17.5h3649q178 0 293 17.5t182.5 53.5t93 91t25.5 131v455q0 74 -25.5 129t-93 92t-182 54t-293.5 17h-3649q-178 0 -293 -17t-182.5 -54t-93 -92.5t-25.5 -128.5v-455z" />
<glyph unicode="1" horiz-adv-x="1630" d="M123 1214v175h616q197 0 341.5 -26t239.5 -81t141 -144t46 -216v-922h-174v922q0 76 -25.5 131t-93 91t-182 53t-293.5 17h-616z" />
<glyph unicode="2" horiz-adv-x="5431" d="M123 346v111q0 82 33.5 145.5t110.5 107.5t204 67.5t313 23.5h3867q137 0 231.5 10t151.5 31.5t81.5 53.5t24.5 77v69q0 45 -24.5 77t-81.5 53.5t-151.5 31.5t-231.5 10h-4489v175h4489q186 0 314 -24t205 -68t111 -108.5t34 -146.5v-69q0 -82 -34 -146.5t-111 -108.5 t-205 -66.5t-314 -22.5h-3867q-137 0 -231 -10.5t-151.5 -32t-82 -53t-24.5 -76.5v-111q0 -45 24.5 -77.5t82 -53t151.5 -31t231 -10.5h4467v-174h-4467q-186 0 -313 23.5t-204 67.5t-110.5 108.5t-33.5 146.5z" />
<glyph unicode="3" horiz-adv-x="5351" d="M98 0v174h4475q137 0 231.5 10.5t152 31t82 53t24.5 77.5v117q0 37 -27 65.5t-91.5 49t-170 32t-262.5 11.5h-4375v172h4375q158 0 263 11t169.5 30.5t91.5 49t27 66.5v92q0 45 -24.5 77t-82 53.5t-152 31.5t-231.5 10h-4471v175h4471q186 0 314.5 -24t205 -68 t110.5 -108.5t34 -146.5v-92q0 -96 -74 -158.5t-201 -84.5q127 -25 201 -87.5t74 -156.5v-117q0 -82 -34 -146.5t-110.5 -108.5t-204.5 -67.5t-315 -23.5h-4475z" />
<glyph unicode="4" horiz-adv-x="5318" d="M59 670q0 70 78 84l3754 665v-663h1366v-172h-1366v-584h-174v584h-3563q-43 0 -69 24.5t-26 61.5zM977 756h2740v471z" />
<glyph unicode="5" horiz-adv-x="5341" d="M131 715v588q0 86 88 86h4977v-175h-4891v-413h4252q186 0 313 -23.5t204 -67.5t110.5 -107.5t33.5 -145.5v-111q0 -82 -33.5 -146.5t-110.5 -108.5t-204 -67.5t-313 -23.5h-4405v174h4405q137 0 231 10.5t151.5 31t82 53t24.5 77.5v111q0 45 -24.5 76.5t-82 53 t-151.5 32t-231 10.5h-4338q-88 0 -88 86z" />
<glyph unicode="6" horiz-adv-x="5355" d="M123 467v455q0 127 46 216t141.5 144t239.5 81t341 26h4206v-175h-4206q-178 0 -293 -17t-182.5 -54t-93 -92.5t-25.5 -128.5v-113h4284q186 0 314.5 -23.5t205 -67.5t110.5 -107.5t34 -145.5v-119q0 -82 -34 -146.5t-110.5 -108.5t-204.5 -67.5t-315 -23.5h-3690 q-197 0 -341 25.5t-239.5 81t-141.5 144.5t-46 216zM297 467q0 -76 25.5 -131t93 -91t182.5 -53.5t293 -17.5h3690q137 0 231.5 10.5t152 31t82 53t24.5 77.5v119q0 45 -24.5 76.5t-82 52t-151.5 31t-232 10.5h-4284v-168z" />
<glyph unicode="7" horiz-adv-x="5206" d="M94 1214v175h4201q197 0 341 -26t239 -81t141.5 -144t46.5 -216v-922h-174v922q0 76 -26 131t-93.5 91t-182 53t-292.5 17h-4201z" />
<glyph unicode="8" horiz-adv-x="5275" d="M117 346v117q0 94 73.5 156.5t200.5 87.5q-127 23 -200.5 85t-73.5 158v92q0 82 33.5 146.5t110.5 108.5t204 68t315 24h3715q186 0 314.5 -24t205 -68t110.5 -108.5t34 -146.5v-92q0 -96 -74 -158.5t-201 -84.5q127 -25 201 -87.5t74 -156.5v-117q0 -82 -34 -146.5 t-110.5 -108.5t-204.5 -67.5t-315 -23.5h-3715q-188 0 -315 23.5t-204 67.5t-110.5 108.5t-33.5 146.5zM291 346q0 -45 24.5 -77.5t82 -53t151.5 -31t231 -10.5h3715q137 0 231.5 10.5t152 31t82 53t24.5 77.5v117q0 37 -26.5 65.5t-91 49t-170 32t-263.5 11.5h-3592 q-158 0 -263.5 -11.5t-170 -32t-91 -49t-26.5 -65.5v-117zM291 950q0 -37 26.5 -66.5t91 -49t170 -30.5t263.5 -11h3592q158 0 263.5 11t170 30.5t91 49t26.5 66.5v92q0 45 -24.5 77t-82 53.5t-151.5 31.5t-232 10h-3715q-137 0 -231 -10t-151.5 -31.5t-82 -53.5t-24.5 -77 v-92z" />
<glyph unicode="9" horiz-adv-x="5294" d="M111 924v118q0 82 33.5 146.5t110.5 108.5t204 68t315 24h3629q197 0 341.5 -26t239.5 -81t141 -144t46 -216v-455q0 -127 -46 -216t-141 -144.5t-239.5 -81t-341.5 -25.5h-4145v174h4145q178 0 293 17.5t182.5 54.5t93 92t25.5 129v113h-4223q-188 0 -315 23.5 t-204 67.5t-110.5 107.5t-33.5 145.5zM285 924q0 -45 24.5 -77t82 -52.5t151.5 -30.5t231 -10h4223v168q0 76 -25.5 131t-93 91t-182.5 53t-293 17h-3629q-137 0 -231 -10t-151.5 -30.5t-82 -53.5t-24.5 -78v-118z" />
<glyph unicode=":" horiz-adv-x="669" d="M248 0v309h174v-309h-174zM248 729v309h174v-309h-174z" />
<glyph unicode=";" horiz-adv-x="655" d="M180 -160l53 185q8 29 10.5 55t2.5 53v176h174v-186q0 -47 -21 -107l-59 -176h-160zM246 729v309h176v-309h-176z" />
<glyph unicode="&#x3c;" horiz-adv-x="1363" d="M164 618v117l1036 467v-151l-858 -373l858 -371v-151z" />
<glyph unicode="=" horiz-adv-x="1363" d="M164 379v143h1036v-143h-1036zM164 911v144h1036v-144h-1036z" />
<glyph unicode="&#x3e;" horiz-adv-x="1363" d="M164 156v151l858 371l-858 373v151l1036 -467v-117z" />
<glyph unicode="?" horiz-adv-x="3872" d="M135 0v354h174v-354h-174zM135 438v43q0 82 34 145.5t110.5 107.5t203.5 67.5t314 23.5h2351q137 0 231 10.5t151.5 32t82 53t24.5 76.5v45q0 45 -24.5 77t-82 53.5t-151.5 31.5t-231 10h-2974v175h2974q186 0 314 -24t205 -68t110.5 -108.5t33.5 -146.5v-45 q0 -82 -33.5 -146.5t-110.5 -108.5t-205 -66.5t-314 -22.5h-2351q-137 0 -231.5 -10t-152 -31.5t-82 -53.5t-24.5 -77v-43h-172z" />
<glyph unicode="@" horiz-adv-x="2627" d="M123 63v834q0 195 143.5 276.5t444.5 81.5h1206q301 0 444.5 -81.5t143.5 -276.5v-455q0 -195 -143.5 -276.5t-444.5 -81.5h-776q-301 0 -445.5 82t-144.5 276v37q0 195 144.5 276t445.5 81h1231v61q0 57 -19.5 100t-71 71t-139.5 41t-225 13h-1206q-137 0 -225.5 -13 t-139.5 -41t-70.5 -71t-19.5 -100v-834q0 -57 19.5 -100t70.5 -70.5t139 -41t226 -13.5h1693v-131h-1693q-301 0 -444.5 80t-143.5 276zM686 442q0 -57 20.5 -100t71.5 -70.5t139.5 -41t223.5 -13.5h776q137 0 225 13.5t139.5 41t71 70.5t19.5 100v263h-1231 q-135 0 -223.5 -14.5t-139.5 -42t-71.5 -69.5t-20.5 -100v-37z" />
<glyph unicode="A" horiz-adv-x="6223" d="M164 0v1303q0 86 86 86h5724q86 0 86 -86v-1303h-172v608h-5550v-608h-174zM338 782h5550v432h-5550v-432z" />
<glyph unicode="B" horiz-adv-x="6148" d="M164 86v1217q0 86 86 86h5132q186 0 314.5 -24t205 -68t110.5 -108.5t34 -146.5v-92q0 -96 -74 -158.5t-201 -84.5q127 -25 201 -87.5t74 -156.5v-117q0 -82 -34 -146.5t-110.5 -108.5t-204.5 -67.5t-315 -23.5h-5132q-86 0 -86 86zM338 174h5044q137 0 231.5 10.5 t151.5 31t82 53t25 77.5v117q0 37 -27 65.5t-91.5 49t-170 32t-262.5 11.5h-4983v-447zM338 793h4983q158 0 263 11t169.5 30.5t91.5 49t27 66.5v92q0 45 -25 77t-82 53.5t-151.5 31.5t-231.5 10h-5044v-421z" />
<glyph unicode="C" horiz-adv-x="5892" d="M123 467v455q0 127 46 216t141.5 144t239.5 81t341 26h4934v-175h-4934q-178 0 -293 -17t-182.5 -54t-93 -92.5t-25.5 -128.5v-455q0 -76 25.5 -131t93 -91t182.5 -53.5t293 -17.5h4934v-174h-4934q-197 0 -341 25.5t-239.5 81t-141.5 144.5t-46 216z" />
<glyph unicode="D" horiz-adv-x="6182" d="M164 86v1217q0 86 86 86h5042q197 0 341 -26t239.5 -81t141.5 -144t46 -216v-455q0 -127 -46 -216t-141.5 -144.5t-239.5 -81t-341 -25.5h-5042q-86 0 -86 86zM338 174h4954q178 0 294 17.5t183.5 53.5t93 91t25.5 131v455q0 74 -25.5 129t-93 92t-183.5 54t-294 17 h-4954v-1040z" />
<glyph unicode="E" horiz-adv-x="6135" d="M123 467v455q0 127 46 216t141.5 144t239.5 81t341 26h5108v-175h-5108q-178 0 -293 -17t-182.5 -54t-93 -92.5t-25.5 -128.5v-123h5681v-172h-5681v-160q0 -76 25.5 -131t93 -91t182.5 -53.5t293 -17.5h5110v-174h-5110q-197 0 -341 25.5t-239.5 81t-141.5 144.5 t-46 216z" />
<glyph unicode="F" horiz-adv-x="6039" d="M164 0v922q0 127 46 216t141 144t239.5 81t341.5 26h5040v-175h-5040q-178 0 -293 -17t-182.5 -54t-93 -92.5t-25.5 -128.5v-152h5609v-174h-5609v-596h-174z" />
<glyph unicode="G" horiz-adv-x="6158" d="M123 467v455q0 127 46 216t141.5 144t239.5 81t341 26h5046v-175h-5046q-178 0 -293 -17t-182.5 -54t-93 -92.5t-25.5 -128.5v-455q0 -76 25.5 -131t93 -91t182.5 -53.5t293 -17.5h4530q137 0 231.5 10.5t151.5 31t82 53t25 77.5v119q0 45 -25 76.5t-82 52t-151.5 31 t-231.5 10.5h-2113v174h2113q186 0 314 -23.5t205 -67.5t111 -107.5t34 -145.5v-119q0 -82 -34 -146.5t-111 -108.5t-205 -67.5t-314 -23.5h-4530q-197 0 -341 25.5t-239.5 81t-141.5 144.5t-46 216z" />
<glyph unicode="H" horiz-adv-x="6268" d="M164 0v1389h174v-586h5595v586h172v-1389h-172v629h-5595v-629h-174z" />
<glyph unicode="I" horiz-adv-x="542" d="M184 0v1389h174v-1389h-174z" />
<glyph unicode="J" horiz-adv-x="5206" d="M61 467v192h175v-192q0 -76 25.5 -131t93 -91t182 -53.5t292.5 -17.5h3466q178 0 292.5 17.5t182 53.5t93.5 91t26 131v922h174v-922q0 -127 -46.5 -216t-141.5 -144.5t-239.5 -81t-340.5 -25.5h-3466q-197 0 -341 25.5t-239 81t-141.5 144.5t-46.5 216z" />
<glyph unicode="K" horiz-adv-x="6121" d="M164 0v1389h174v-586h4436q178 0 292.5 17.5t182.5 54t93.5 92t25.5 129.5v293h174v-293q0 -98 -30 -175t-83 -126q319 -16 475 -122t156 -335v-338h-172v338q0 74 -25.5 129t-93 91t-183.5 53.5t-294 17.5h-4954v-629h-174z" />
<glyph unicode="L" horiz-adv-x="6023" d="M164 467v922h174v-922q0 -76 25.5 -131t93 -91t182.5 -53.5t293 -17.5h5040v-174h-5040q-197 0 -341.5 25.5t-239.5 81t-141 144.5t-46 216z" />
<glyph unicode="M" horiz-adv-x="6662" d="M164 0v1303q0 86 86 86h5501q197 0 341 -26t239.5 -81t141.5 -144t46 -216v-922h-174v922q0 74 -25.5 129t-93.5 92t-182.5 54t-292.5 17h-2329v-1214h-172v1214h-2912v-1214h-174z" />
<glyph unicode="N" horiz-adv-x="6148" d="M143 0v922q0 127 46.5 216t141.5 144t239.5 81t340.5 26h4326q197 0 341 -26t239.5 -81t141.5 -144t46 -216v-922h-174v922q0 74 -26 129t-93.5 92t-182 54t-292.5 17h-4326q-178 0 -292.5 -17t-182 -54t-93.5 -92.5t-26 -128.5v-922h-174z" />
<glyph unicode="O" d="M123 467v455q0 127 46 216t141.5 144t239.5 81t341 26h4325q197 0 341.5 -26t239.5 -81t141 -144t46 -216v-455q0 -127 -46 -216t-141 -144.5t-239.5 -81t-341.5 -25.5h-4325q-197 0 -341 25.5t-239.5 81t-141.5 144.5t-46 216zM297 467q0 -76 25.5 -131t93 -91 t182.5 -53.5t293 -17.5h4325q178 0 293 17.5t182.5 53.5t93 91t25.5 131v455q0 74 -25.5 129t-93 92t-182.5 54t-293 17h-4325q-178 0 -293 -17t-182.5 -54t-93 -92.5t-25.5 -128.5v-455z" />
<glyph unicode="P" horiz-adv-x="6115" d="M164 0v1303q0 86 86 86h5120q186 0 314 -24t205 -68t110.5 -108.5t33.5 -146.5v-131q0 -82 -33.5 -146.5t-110.5 -108.5t-205 -67.5t-314 -23.5h-5032v-565h-174zM338 739h5032q137 0 231 10.5t151.5 32t82 53t24.5 76.5v131q0 45 -24.5 77t-82 53.5t-151.5 31.5t-231 10 h-5032v-475z" />
<glyph unicode="Q" d="M123 467v455q0 127 46 216t141.5 144t239.5 81t341 26h4325q197 0 341.5 -26t239.5 -81t141 -144t46 -216v-455q0 -123 -44 -211t-133 -144.5t-225 -83t-323 -28.5l441 -197l-88 -149l-768 346h-3953q-197 0 -341 25.5t-239.5 81t-141.5 144.5t-46 216zM297 467 q0 -76 25.5 -131t93 -91t182.5 -53.5t293 -17.5h4325q178 0 293 17.5t182.5 53.5t93 91t25.5 131v455q0 74 -25.5 129t-93 92t-182.5 54t-293 17h-4325q-178 0 -293 -17t-182.5 -54t-93 -92.5t-25.5 -128.5v-455z" />
<glyph unicode="R" horiz-adv-x="6176" d="M164 0v1303q0 86 86 86h5132q186 0 314.5 -24t205 -68t110.5 -108.5t34 -146.5v-92q0 -96 -74 -158.5t-201 -84.5q127 -25 201 -87.5t74 -156.5v-463h-174v463q0 37 -27 65.5t-91.5 48t-170 30.5t-262.5 11h-4983v-618h-174zM338 793h4983q158 0 263 11t169.5 30.5 t91.5 49t27 66.5v92q0 45 -25 77t-82 53.5t-151.5 31.5t-231.5 10h-5044v-421z" />
<glyph unicode="S" horiz-adv-x="6148" d="M104 973v69q0 82 34 146.5t111 108.5t204 68t315 24h5247v-175h-5247q-137 0 -231.5 -10t-151.5 -31.5t-81.5 -53.5t-24.5 -77v-69q0 -45 24.5 -77t81.5 -53.5t151.5 -31.5t231.5 -10h4624q186 0 313.5 -23.5t204 -67.5t110.5 -107.5t34 -145.5v-111q0 -82 -34 -146.5 t-110.5 -108.5t-203.5 -67.5t-314 -23.5h-5224v174h5224q137 0 231.5 10.5t152 31t82 53t24.5 77.5v111q0 45 -24.5 76.5t-82 53t-151.5 32t-232 10.5h-4624q-188 0 -315 22.5t-204 66.5t-111 108.5t-34 146.5z" />
<glyph unicode="T" horiz-adv-x="6019" d="M41 1214v175h5937v-175h-2871v-1214h-174v1214h-2892z" />
<glyph unicode="U" horiz-adv-x="6109" d="M143 467v922h174v-922q0 -76 26 -131t93.5 -91t182 -53.5t292.5 -17.5h4287q178 0 292.5 17.5t182.5 53.5t93.5 91t25.5 131v922h174v-922q0 -127 -46 -216t-141.5 -144.5t-240 -81t-340.5 -25.5h-4287q-197 0 -341 25.5t-239 81t-141.5 144.5t-46.5 216z" />
<glyph unicode="V" horiz-adv-x="5619" d="M41 1296l74 156l2574 -1270q14 -4 22.5 -6t22.5 -2h152q14 0 22 2t23 6l2574 1270l74 -156l-2591 -1276q-25 -12 -41 -16t-47 -4h-180q-31 0 -47.5 4t-40.5 16z" />
<glyph unicode="W" horiz-adv-x="6569" d="M143 467v922h174v-922q0 -76 26 -131t93.5 -91t182 -53.5t292.5 -17.5h2288v1215h172v-1215h2288q178 0 292.5 17.5t182 53.5t93.5 91t26 131v922h174v-922q0 -127 -46.5 -216t-141.5 -144.5t-239.5 -81t-340.5 -25.5h-4748q-197 0 -341 25.5t-239 81t-141.5 144.5 t-46.5 216z" />
<glyph unicode="X" horiz-adv-x="6615" d="M131 0v463q0 94 72.5 156.5t202.5 87.5q-129 23 -202 85t-73 158v439h172v-439q0 -37 26.5 -66.5t91 -49t171 -30.5t264.5 -11h4903q158 0 264.5 11t170 30.5t90 49t26.5 66.5v439h174v-439q0 -96 -72.5 -158.5t-201.5 -84.5q129 -25 201.5 -87.5t72.5 -156.5v-463h-174 v463q0 37 -26.5 65.5t-90 49t-170 32t-264.5 11.5h-4903q-158 0 -264.5 -11.5t-171 -32t-91 -49t-26.5 -65.5v-463h-172z" />
<glyph unicode="Y" horiz-adv-x="6027" d="M102 1051v338h174v-338q0 -74 26 -129.5t93.5 -92t182 -54t292.5 -17.5h4285q178 0 293.5 17.5t183.5 54t93.5 92t25.5 129.5v338h174v-338q0 -127 -46 -216.5t-141.5 -144.5t-241 -79.5t-341.5 -24.5h-2054v-586h-174v586h-2057q-197 0 -341 24.5t-239 79.5 t-141.5 144.5t-46.5 216.5z" />
<glyph unicode="Z" horiz-adv-x="6135" d="M119 145v52q0 82 38 119.5t130 52.5l5486 825q14 2 15 10q0 10 -15 10h-5619v175h5619q98 0 142.5 -37t44.5 -111v-49q0 -86 -38 -123t-130 -49l-5489 -825q-12 -2 -12 -13q0 -2 1 -5t11 -3h5728v-174h-5726q-100 0 -143 37t-43 108z" />
<glyph unicode="[" horiz-adv-x="708" d="M266 -297v1974h381v-129h-235v-1716h235v-129h-381z" />
<glyph unicode="\" horiz-adv-x="2801" d="M164 1491l104 139l2370 -1784l-105 -141z" />
<glyph unicode="]" horiz-adv-x="708" d="M61 -168h236v1716h-236v129h381v-1974h-381v129z" />
<glyph unicode="^" horiz-adv-x="1261" d="M106 352l463 1037h117l467 -1037h-152l-372 858l-371 -858h-152z" />
<glyph unicode="_" horiz-adv-x="1736" d="M-18 -162h1763v-182h-1763v182z" />
<glyph unicode="`" horiz-adv-x="1073" d="M164 1765v162l745 -319v-129z" />
<glyph unicode="a" horiz-adv-x="6223" d="M164 0v1303q0 86 86 86h5724q86 0 86 -86v-1303h-172v608h-5550v-608h-174zM164 0zM338 782h5550v432h-5550v-432z" />
<glyph unicode="b" horiz-adv-x="6148" d="M164 0zM164 86v1217q0 86 86 86h5132q186 0 314.5 -24t205 -68t110.5 -108.5t34 -146.5v-92q0 -96 -74 -158.5t-201 -84.5q127 -25 201 -87.5t74 -156.5v-117q0 -82 -34 -146.5t-110.5 -108.5t-204.5 -67.5t-315 -23.5h-5132q-86 0 -86 86zM338 174h5044 q137 0 231.5 10.5t151.5 31t82 53t25 77.5v117q0 37 -27 65.5t-91.5 49t-170 32t-262.5 11.5h-4983v-447zM338 793h4983q158 0 263 11t169.5 30.5t91.5 49t27 66.5v92q0 45 -25 77t-82 53.5t-151.5 31.5t-231.5 10h-5044v-421z" />
<glyph unicode="c" horiz-adv-x="5892" d="M123 0zM123 467v455q0 127 46 216t141.5 144t239.5 81t341 26h4934v-175h-4934q-178 0 -293 -17t-182.5 -54t-93 -92.5t-25.5 -128.5v-455q0 -76 25.5 -131t93 -91t182.5 -53.5t293 -17.5h4934v-174h-4934q-197 0 -341 25.5t-239.5 81t-141.5 144.5t-46 216z" />
<glyph unicode="d" horiz-adv-x="6182" d="M164 0zM164 86v1217q0 86 86 86h5042q197 0 341 -26t239.5 -81t141.5 -144t46 -216v-455q0 -127 -46 -216t-141.5 -144.5t-239.5 -81t-341 -25.5h-5042q-86 0 -86 86zM338 174h4954q178 0 294 17.5t183.5 53.5t93 91t25.5 131v455q0 74 -25.5 129t-93 92t-183.5 54 t-294 17h-4954v-1040z" />
<glyph unicode="e" horiz-adv-x="6135" d="M123 0zM123 467v455q0 127 46 216t141.5 144t239.5 81t341 26h5108v-175h-5108q-178 0 -293 -17t-182.5 -54t-93 -92.5t-25.5 -128.5v-123h5681v-172h-5681v-160q0 -76 25.5 -131t93 -91t182.5 -53.5t293 -17.5h5110v-174h-5110q-197 0 -341 25.5t-239.5 81t-141.5 144.5 t-46 216z" />
<glyph unicode="f" horiz-adv-x="6039" d="M164 0v922q0 127 46 216t141 144t239.5 81t341.5 26h5040v-175h-5040q-178 0 -293 -17t-182.5 -54t-93 -92.5t-25.5 -128.5v-152h5609v-174h-5609v-596h-174zM164 0z" />
<glyph unicode="g" horiz-adv-x="6158" d="M123 0zM123 467v455q0 127 46 216t141.5 144t239.5 81t341 26h5046v-175h-5046q-178 0 -293 -17t-182.5 -54t-93 -92.5t-25.5 -128.5v-455q0 -76 25.5 -131t93 -91t182.5 -53.5t293 -17.5h4530q137 0 231.5 10.5t151.5 31t82 53t25 77.5v119q0 45 -25 76.5t-82 52 t-151.5 31t-231.5 10.5h-2113v174h2113q186 0 314 -23.5t205 -67.5t111 -107.5t34 -145.5v-119q0 -82 -34 -146.5t-111 -108.5t-205 -67.5t-314 -23.5h-4530q-197 0 -341 25.5t-239.5 81t-141.5 144.5t-46 216z" />
<glyph unicode="h" horiz-adv-x="6268" d="M164 0v1389h174v-586h5595v586h172v-1389h-172v629h-5595v-629h-174zM164 0z" />
<glyph unicode="i" horiz-adv-x="542" d="M184 0v1389h174v-1389h-174zM184 0z" />
<glyph unicode="j" horiz-adv-x="5206" d="M61 0zM61 467v192h175v-192q0 -76 25.5 -131t93 -91t182 -53.5t292.5 -17.5h3466q178 0 292.5 17.5t182 53.5t93.5 91t26 131v922h174v-922q0 -127 -46.5 -216t-141.5 -144.5t-239.5 -81t-340.5 -25.5h-3466q-197 0 -341 25.5t-239 81t-141.5 144.5t-46.5 216z" />
<glyph unicode="k" horiz-adv-x="6121" d="M164 0v1389h174v-586h4436q178 0 292.5 17.5t182.5 54t93.5 92t25.5 129.5v293h174v-293q0 -98 -30 -175t-83 -126q319 -16 475 -122t156 -335v-338h-172v338q0 74 -25.5 129t-93 91t-183.5 53.5t-294 17.5h-4954v-629h-174zM164 0z" />
<glyph unicode="l" horiz-adv-x="6023" d="M164 0zM164 467v922h174v-922q0 -76 25.5 -131t93 -91t182.5 -53.5t293 -17.5h5040v-174h-5040q-197 0 -341.5 25.5t-239.5 81t-141 144.5t-46 216z" />
<glyph unicode="m" horiz-adv-x="6662" d="M164 0v1303q0 86 86 86h5501q197 0 341 -26t239.5 -81t141.5 -144t46 -216v-922h-174v922q0 74 -25.5 129t-93.5 92t-182.5 54t-292.5 17h-2329v-1214h-172v1214h-2912v-1214h-174zM164 0z" />
<glyph unicode="n" horiz-adv-x="6148" d="M143 0v922q0 127 46.5 216t141.5 144t239.5 81t340.5 26h4326q197 0 341 -26t239.5 -81t141.5 -144t46 -216v-922h-174v922q0 74 -26 129t-93.5 92t-182 54t-292.5 17h-4326q-178 0 -292.5 -17t-182 -54t-93.5 -92.5t-26 -128.5v-922h-174zM143 0z" />
<glyph unicode="o" d="M123 0zM123 467v455q0 127 46 216t141.5 144t239.5 81t341 26h4325q197 0 341.5 -26t239.5 -81t141 -144t46 -216v-455q0 -127 -46 -216t-141 -144.5t-239.5 -81t-341.5 -25.5h-4325q-197 0 -341 25.5t-239.5 81t-141.5 144.5t-46 216zM297 467q0 -76 25.5 -131t93 -91 t182.5 -53.5t293 -17.5h4325q178 0 293 17.5t182.5 53.5t93 91t25.5 131v455q0 74 -25.5 129t-93 92t-182.5 54t-293 17h-4325q-178 0 -293 -17t-182.5 -54t-93 -92.5t-25.5 -128.5v-455z" />
<glyph unicode="p" horiz-adv-x="6115" d="M164 0v1303q0 86 86 86h5120q186 0 314 -24t205 -68t110.5 -108.5t33.5 -146.5v-131q0 -82 -33.5 -146.5t-110.5 -108.5t-205 -67.5t-314 -23.5h-5032v-565h-174zM164 0zM338 739h5032q137 0 231 10.5t151.5 32t82 53t24.5 76.5v131q0 45 -24.5 77t-82 53.5t-151.5 31.5 t-231 10h-5032v-475z" />
<glyph unicode="q" d="M123 0zM123 467v455q0 127 46 216t141.5 144t239.5 81t341 26h4325q197 0 341.5 -26t239.5 -81t141 -144t46 -216v-455q0 -123 -44 -211t-133 -144.5t-225 -83t-323 -28.5l441 -197l-88 -149l-768 346h-3953q-197 0 -341 25.5t-239.5 81t-141.5 144.5t-46 216zM297 467 q0 -76 25.5 -131t93 -91t182.5 -53.5t293 -17.5h4325q178 0 293 17.5t182.5 53.5t93 91t25.5 131v455q0 74 -25.5 129t-93 92t-182.5 54t-293 17h-4325q-178 0 -293 -17t-182.5 -54t-93 -92.5t-25.5 -128.5v-455z" />
<glyph unicode="r" horiz-adv-x="6176" d="M164 0v1303q0 86 86 86h5132q186 0 314.5 -24t205 -68t110.5 -108.5t34 -146.5v-92q0 -96 -74 -158.5t-201 -84.5q127 -25 201 -87.5t74 -156.5v-463h-174v463q0 37 -27 65.5t-91.5 48t-170 30.5t-262.5 11h-4983v-618h-174zM164 0zM338 793h4983q158 0 263 11 t169.5 30.5t91.5 49t27 66.5v92q0 45 -25 77t-82 53.5t-151.5 31.5t-231.5 10h-5044v-421z" />
<glyph unicode="s" horiz-adv-x="6148" d="M104 0zM104 973v69q0 82 34 146.5t111 108.5t204 68t315 24h5247v-175h-5247q-137 0 -231.5 -10t-151.5 -31.5t-81.5 -53.5t-24.5 -77v-69q0 -45 24.5 -77t81.5 -53.5t151.5 -31.5t231.5 -10h4624q186 0 313.5 -23.5t204 -67.5t110.5 -107.5t34 -145.5v-111 q0 -82 -34 -146.5t-110.5 -108.5t-203.5 -67.5t-314 -23.5h-5224v174h5224q137 0 231.5 10.5t152 31t82 53t24.5 77.5v111q0 45 -24.5 76.5t-82 53t-151.5 32t-232 10.5h-4624q-188 0 -315 22.5t-204 66.5t-111 108.5t-34 146.5z" />
<glyph unicode="t" horiz-adv-x="6019" d="M41 0zM41 1214v175h5937v-175h-2871v-1214h-174v1214h-2892z" />
<glyph unicode="u" horiz-adv-x="6109" d="M143 0zM143 467v922h174v-922q0 -76 26 -131t93.5 -91t182 -53.5t292.5 -17.5h4287q178 0 292.5 17.5t182.5 53.5t93.5 91t25.5 131v922h174v-922q0 -127 -46 -216t-141.5 -144.5t-240 -81t-340.5 -25.5h-4287q-197 0 -341 25.5t-239 81t-141.5 144.5t-46.5 216z" />
<glyph unicode="v" horiz-adv-x="5619" d="M41 0zM41 1296l74 156l2574 -1270q14 -4 22.5 -6t22.5 -2h152q14 0 22 2t23 6l2574 1270l74 -156l-2591 -1276q-25 -12 -41 -16t-47 -4h-180q-31 0 -47.5 4t-40.5 16z" />
<glyph unicode="w" horiz-adv-x="6569" d="M143 0zM143 467v922h174v-922q0 -76 26 -131t93.5 -91t182 -53.5t292.5 -17.5h2288v1215h172v-1215h2288q178 0 292.5 17.5t182 53.5t93.5 91t26 131v922h174v-922q0 -127 -46.5 -216t-141.5 -144.5t-239.5 -81t-340.5 -25.5h-4748q-197 0 -341 25.5t-239 81 t-141.5 144.5t-46.5 216z" />
<glyph unicode="x" horiz-adv-x="6615" d="M131 0v463q0 94 72.5 156.5t202.5 87.5q-129 23 -202 85t-73 158v439h172v-439q0 -37 26.5 -66.5t91 -49t171 -30.5t264.5 -11h4903q158 0 264.5 11t170 30.5t90 49t26.5 66.5v439h174v-439q0 -96 -72.5 -158.5t-201.5 -84.5q129 -25 201.5 -87.5t72.5 -156.5v-463h-174 v463q0 37 -26.5 65.5t-90 49t-170 32t-264.5 11.5h-4903q-158 0 -264.5 -11.5t-171 -32t-91 -49t-26.5 -65.5v-463h-172zM131 0z" />
<glyph unicode="y" horiz-adv-x="6027" d="M102 0zM102 1051v338h174v-338q0 -74 26 -129.5t93.5 -92t182 -54t292.5 -17.5h4285q178 0 293.5 17.5t183.5 54t93.5 92t25.5 129.5v338h174v-338q0 -127 -46 -216.5t-141.5 -144.5t-241 -79.5t-341.5 -24.5h-2054v-586h-174v586h-2057q-197 0 -341 24.5t-239 79.5 t-141.5 144.5t-46.5 216.5z" />
<glyph unicode="z" horiz-adv-x="6135" d="M125 0zM125 145v52q0 82 38 119.5t130 52.5l5486 825q14 2 15 10q0 10 -15 10h-5619v175h5619q98 0 142.5 -37t44.5 -111v-49q0 -86 -38 -123t-130 -49l-5489 -825q-12 -2 -12 -13q0 -2 1 -5t11 -3h5728v-174h-5726q-100 0 -143 37t-43 108z" />
<glyph unicode="{" horiz-adv-x="708" d="M106 633v115h25q45 0 67.5 29.5t22.5 80.5v418q0 397 426 401v-131q-80 -2 -134 -16t-87 -46t-46 -83t-13 -125v-438q0 -66 -20.5 -99.5t-65.5 -48.5q86 -25 86 -149v-437q0 -74 13 -125t46 -82.5t87 -46t134 -16.5v-131q-426 4 -426 401v416q0 113 -90 113h-25z" />
<glyph unicode="|" horiz-adv-x="473" d="M164 -297v1974h145v-1974h-145z" />
<glyph unicode="}" horiz-adv-x="708" d="M61 -166q80 2 134.5 16.5t87 46t46 83t13.5 124.5v437q0 125 86 149q-45 14 -65.5 48t-20.5 100v438q0 74 -13.5 125t-46 83t-87 46t-134.5 16v131q426 -4 426 -401v-418q0 -51 22.5 -80.5t68.5 -29.5h24v-115h-24q-90 0 -91 -113v-416q0 -397 -426 -401v131z" />
<glyph unicode="~" horiz-adv-x="1363" d="M164 594v154l258 90q18 8 39 8q8 0 13 -1t11 -3l383 -105q16 -4 25 -4q6 0 10 1t15 5l282 99v-154l-258 -88q-25 -10 -39 -10q-18 0 -37 6l-370 102q-20 4 -25 4q-8 0 -27 -6z" />
<glyph unicode="&#xa1;" horiz-adv-x="501" d="M164 -307v954h174v-954h-174zM164 770v309h174v-309h-174z" />
<glyph unicode="&#xa2;" horiz-adv-x="2703" d="M102 377v635q0 104 45.5 154.5t161.5 50.5h1032v172h156v-172h1159v-158h-2320q-39 0 -51.5 -16.5t-12.5 -57.5v-577q0 -41 13.5 -55.5t50.5 -14.5h2320v-164h-1159v-174h-156v174h-1030q-117 0 -163 49t-46 154z" />
<glyph unicode="&#xa3;" horiz-adv-x="1585" d="M86 0v174h221v481h-221v146h221v383q0 104 40 153t149 49h977v-172h-895q-57 0 -71.5 -18t-14.5 -80v-315h968v-146h-968v-481h999v-174h-1405z" />
<glyph unicode="&#xa4;" horiz-adv-x="1255" d="M164 322l217 215v309l-217 217l96 96l213 -217h309l213 217l97 -96l-220 -217v-309l220 -215l-97 -99l-213 219h-309l-213 -219zM508 567h240v248h-240v-248z" />
<glyph unicode="&#xa5;" horiz-adv-x="1701" d="M68 1386v3h213l577 -531l576 531h198l-4 -3l-692 -655h528v-121h-528v-202h528v-121h-528v-287h-172v287h-528v121h528v202h-528v121h528z" />
<glyph unicode="&#xa6;" horiz-adv-x="473" d="M164 -297v746h145v-746h-145zM164 932v745h145v-745h-145z" />
<glyph unicode="&#xa7;" horiz-adv-x="1492" d="M164 219v965q0 104 41 153t147 49h969v-145h-901q-59 0 -78.5 -22.5t-19.5 -96.5v-260h819q106 0 147 -49t41 -154v-981q0 -104 -41 -153t-147 -49h-959v149h883q66 0 86 24.5t20 94.5v272h-819q-106 0 -147 49.5t-41 153.5zM322 279q0 -66 17 -89.5t77 -23.5h755v444 q0 66 -19 86.5t-85 20.5h-745v-438z" />
<glyph unicode="&#xa8;" horiz-adv-x="1159" d="M164 1513v312h188v-312h-188zM809 1513v312h186v-312h-186z" />
<glyph unicode="&#xaa;" horiz-adv-x="3483" d="M127 618v713q0 57 57 58h3074q59 0 60 -58v-713h-117v326h-2955v-326h-119zM246 1063h2955v207h-2955v-207z" />
<glyph unicode="&#xab;" horiz-adv-x="1253" d="M31 266zM31 723l452 455l113 -107l-363 -348l363 -350l-113 -107zM658 723l452 455l113 -107l-363 -348l363 -350l-113 -107z" />
<glyph unicode="&#xac;" horiz-adv-x="1363" d="M164 717v145h1036v-708h-143v563h-893z" />
<glyph unicode="&#xad;" horiz-adv-x="1374" d="M164 639v182h1046v-182h-1046z" />
<glyph unicode="&#xaf;" horiz-adv-x="1257" d="M164 1636v131h930v-131h-930z" />
<glyph unicode="&#xb0;" horiz-adv-x="864" d="M164 987v277q0 66 26.5 95.5t94.5 29.5h293q70 0 96 -30t26 -95v-277q0 -66 -26.5 -95.5t-95.5 -29.5h-293q-68 0 -94.5 30t-26.5 95zM270 1014q0 -49 47 -49h228q45 0 45 49v225q0 51 -45 51h-226q-49 0 -49 -53v-223z" />
<glyph unicode="&#xb1;" horiz-adv-x="1363" d="M164 2v143h1036v-143h-1036zM164 2zM164 645v143h446v447h144v-447h446v-143h-446v-448h-144v448h-446z" />
<glyph unicode="&#xb2;" horiz-adv-x="3049" d="M102 618zM102 817v59q0 47 18.5 84t61.5 61.5t114 38t175 13.5h2075q141 0 195.5 18.5t54.5 61.5v36q0 43 -54.5 61.5t-195.5 18.5h-2423v119h2423q104 0 174.5 -13.5t113.5 -39t61.5 -62.5t18.5 -84v-36q0 -47 -18.5 -84t-61.5 -61.5t-113.5 -38t-174.5 -13.5h-2075 q-143 0 -197.5 -19.5t-54.5 -60.5v-59q0 -43 54.5 -61.5t197.5 -18.5h2408v-119h-2408q-104 0 -175 13.5t-114 39t-61.5 62.5t-18.5 84z" />
<glyph unicode="&#xb3;" horiz-adv-x="3004" d="M88 618v119h2417q139 0 195.5 18.5t56.5 61.5v61q0 33 -62.5 53.5t-222.5 20.5h-2361v117h2361q160 0 222.5 18t62.5 53v49q0 43 -56.5 61.5t-195.5 18.5h-2413v119h2413q104 0 173.5 -13.5t112.5 -39t61.5 -62.5t18.5 -84v-49q0 -92 -108 -131q51 -18 79.5 -52t28.5 -79 v-61q0 -47 -18.5 -84t-61.5 -62.5t-112.5 -39t-173.5 -13.5h-2417zM88 618z" />
<glyph unicode="&#xb4;" horiz-adv-x="1073" d="M164 1477v129l745 321v-160z" />
<glyph unicode="&#xb6;" horiz-adv-x="1925" d="M61 805v362q0 111 47.5 165t163.5 54h1579v-143h-239v-1593h-166v1593h-553v-1593h-166v936h-459q-207 0 -207 219zM227 856q0 -72 19.5 -96.5t79.5 -24.5h401v508h-393q-35 0 -56.5 -4t-33 -17.5t-14.5 -39t-3 -66.5v-260z" />
<glyph unicode="&#xb7;" horiz-adv-x="501" d="M164 553v354h174v-354h-174zM164 553z" />
<glyph unicode="&#xb8;" horiz-adv-x="526" d="M164 -528l53 184q8 29 10 55.5t2 52.5v113h174v-123q0 -47 -20 -106l-59 -176h-160z" />
<glyph unicode="&#xb9;" horiz-adv-x="958" d="M90 618zM90 1269v119h344q217 0 320.5 -59.5t103.5 -202.5v-508h-119v508q0 37 -13 63.5t-48 45t-93.5 26.5t-150.5 8h-344z" />
<glyph unicode="&#xba;" horiz-adv-x="3420" d="M104 881v245q0 143 102.5 203t321.5 60h2325q217 0 320.5 -59.5t103.5 -203.5v-245q0 -143 -103.5 -203t-320.5 -60h-2325q-219 0 -321.5 59.5t-102.5 203.5zM223 881q0 -37 13.5 -65t48 -45t93 -25.5t150.5 -8.5h2325q92 0 150.5 8.5t93 25.5t48 45t13.5 65v245 q0 37 -13.5 64t-48 45t-93 26.5t-150.5 8.5h-2325q-92 0 -150.5 -8.5t-93 -26.5t-48 -45t-13.5 -64v-245z" />
<glyph unicode="&#xbb;" horiz-adv-x="1253" d="M31 266zM31 373l362 350l-362 348l112 107l453 -455l-453 -457zM658 373l362 350l-362 348l112 107l453 -455l-453 -457z" />
<glyph unicode="&#xbc;" horiz-adv-x="4149" d="M123 0zM123 1269v119h344q217 0 320.5 -59.5t103.5 -202.5v-508h-119v508q0 37 -13 63.5t-48 45t-93.5 26.5t-150.5 8h-344zM395 96l1729 1293l65 -95l-1726 -1294zM1211 373q0 45 53 55l2029 360v-358h734v-117h-734v-313h-118v313h-1903q-29 0 -45 17.5t-16 42.5z M1854 430h1321v225z" />
<glyph unicode="&#xbd;" horiz-adv-x="4630" d="M123 0zM123 1269v119h344q217 0 320.5 -59.5t103.5 -202.5v-508h-119v508q0 37 -13 63.5t-48 45t-93.5 26.5t-150.5 8h-344zM395 96l1729 1293l65 -95l-1726 -1294zM1695 199v59q0 47 18.5 84t61.5 61.5t114 38t175 13.5h2075q141 0 195.5 18.5t54.5 61.5v36 q0 43 -54.5 61.5t-195.5 18.5h-2423v119h2423q104 0 174.5 -13.5t113.5 -39t61.5 -62.5t18.5 -84v-36q0 -47 -18.5 -84t-61.5 -61.5t-113.5 -38t-174.5 -13.5h-2075q-143 0 -197.5 -19.5t-54.5 -60.5v-59q0 -43 54.5 -61.5t197.5 -18.5h2408v-119h-2408q-104 0 -175 13.5 t-114 39t-61.5 62.5t-18.5 84z" />
<glyph unicode="&#xbe;" horiz-adv-x="6197" d="M123 0zM123 618v119h2417q139 0 195.5 18.5t56.5 61.5v61q0 33 -62.5 53.5t-222.5 20.5h-2361v117h2361q160 0 222.5 18t62.5 53v49q0 43 -56.5 61.5t-195.5 18.5h-2413v119h2413q104 0 173.5 -13.5t112.5 -39t61.5 -62.5t18.5 -84v-49q0 -92 -108 -131q51 -18 79.5 -52 t28.5 -79v-61q0 -47 -18.5 -84t-61.5 -62.5t-112.5 -39t-173.5 -13.5h-2417zM2443 96l1729 1293l65 -95l-1726 -1294zM3259 373q0 45 53 55l2029 360v-358h734v-117h-734v-313h-118v313h-1903q-29 0 -45 17.5t-16 42.5zM3902 430h1321v225z" />
<glyph unicode="&#xbf;" horiz-adv-x="3872" d="M74 39v45q0 82 33.5 146.5t110.5 108.5t204 66.5t315 22.5h2351q137 0 231.5 10.5t152 32t82 53t24.5 76.5v43h172v-43q0 -82 -34 -145.5t-110.5 -107.5t-203.5 -67.5t-314 -23.5h-2351q-137 0 -231 -10t-151.5 -31.5t-82 -53.5t-24.5 -77v-45q0 -45 24.5 -77t82 -53.5 t151.5 -31.5t231 -10h2974v-174h-2974q-188 0 -315 23.5t-204 67.5t-110.5 108.5t-33.5 146.5zM3576 727v354h174v-354h-174z" />
<glyph unicode="&#xc0;" horiz-adv-x="6223" d="M164 0v1303q0 86 86 86h5724q86 0 86 -86v-1303h-172v608h-5550v-608h-174zM164 0zM338 782h5550v432h-5550v-432zM2636 1765v162l745 -319v-129z" />
<glyph unicode="&#xc1;" horiz-adv-x="6223" d="M164 0v1303q0 86 86 86h5724q86 0 86 -86v-1303h-172v608h-5550v-608h-174zM164 0zM338 782h5550v432h-5550v-432zM2841 1477v129l745 321v-160z" />
<glyph unicode="&#xc2;" horiz-adv-x="6223" d="M164 0v1303q0 86 86 86h5724q86 0 86 -86v-1303h-172v608h-5550v-608h-174zM164 0zM338 782h5550v432h-5550v-432zM2622 1462v49q0 41 10 62.5t39 46.5l369 307h145l369 -307q31 -25 40 -46.5t9 -62.5v-49h-146v41q0 27 -7 42.5t-27 31.5l-308 252l-305 -252 q-20 -16 -26.5 -31.5t-6.5 -42.5v-41h-155z" />
<glyph unicode="&#xc3;" horiz-adv-x="6223" d="M164 0v1303q0 86 86 86h5724q86 0 86 -86v-1303h-172v608h-5550v-608h-174zM164 0zM338 782h5550v432h-5550v-432zM2685 1636v131h854v-131h-854z" />
<glyph unicode="&#xc4;" horiz-adv-x="6223" d="M164 0v1303q0 86 86 86h5724q86 0 86 -86v-1303h-172v608h-5550v-608h-174zM164 0zM338 782h5550v432h-5550v-432zM2695 1513v312h188v-312h-188zM3340 1513v312h186v-312h-186z" />
<glyph unicode="&#xc5;" horiz-adv-x="6223" d="M164 0v1303q0 86 86 86h5724q86 0 86 -86v-1303h-172v608h-5550v-608h-174zM164 0zM338 782h5550v432h-5550v-432zM2874 1587v215q0 66 26.5 95.5t94.5 29.5h235q70 0 95.5 -29.5t25.5 -95.5v-215q0 -66 -25.5 -95.5t-95.5 -29.5h-235q-68 0 -94.5 30t-26.5 95z M2978 1616q0 -31 8.5 -41t38.5 -10h177q29 0 37 9t8 42v166q0 31 -8.5 39t-34.5 8h-183q-27 0 -35 -8.5t-8 -42.5v-162z" />
<glyph unicode="&#xc6;" horiz-adv-x="11079" d="M164 0v1303q0 86 86 86h5314q86 0 86 -86v-29q94 59 242 87t352 28h4698v-175h-4698q-174 0 -287.5 -17t-181 -51t-95.5 -87t-30 -123v-115h5272v-182h-5272v-172q0 -76 26 -131t93.5 -91t182 -53.5t292.5 -17.5h4701v-174h-4701q-205 0 -352 27.5t-242 87.5v-115h-172 v639h-5140v-639h-174zM338 821h5140v393h-5140v-393z" />
<glyph unicode="&#xc7;" horiz-adv-x="5892" d="M123 0zM123 467v455q0 127 46 216t141.5 144t239.5 81t341 26h4934v-175h-4934q-178 0 -293 -17t-182.5 -54t-93 -92.5t-25.5 -128.5v-455q0 -76 25.5 -131t93 -91t182.5 -53.5t293 -17.5h4934v-174h-4934q-197 0 -341 25.5t-239.5 81t-141.5 144.5t-46 216zM2826 -528 l53 184q8 29 10 55.5t2 52.5v113h174v-123q0 -47 -20 -106l-59 -176h-160z" />
<glyph unicode="&#xc8;" horiz-adv-x="6135" d="M123 0zM123 467v455q0 127 46 216t141.5 144t239.5 81t341 26h5108v-175h-5108q-178 0 -293 -17t-182.5 -54t-93 -92.5t-25.5 -128.5v-123h5681v-172h-5681v-160q0 -76 25.5 -131t93 -91t182.5 -53.5t293 -17.5h5110v-174h-5110q-197 0 -341 25.5t-239.5 81t-141.5 144.5 t-46 216zM2593 1765v162l745 -319v-129z" />
<glyph unicode="&#xc9;" horiz-adv-x="6135" d="M123 0zM123 467v455q0 127 46 216t141.5 144t239.5 81t341 26h5108v-175h-5108q-178 0 -293 -17t-182.5 -54t-93 -92.5t-25.5 -128.5v-123h5681v-172h-5681v-160q0 -76 25.5 -131t93 -91t182.5 -53.5t293 -17.5h5110v-174h-5110q-197 0 -341 25.5t-239.5 81t-141.5 144.5 t-46 216zM2798 1477v129l745 321v-160z" />
<glyph unicode="&#xca;" horiz-adv-x="6135" d="M123 0zM123 467v455q0 127 46 216t141.5 144t239.5 81t341 26h5108v-175h-5108q-178 0 -293 -17t-182.5 -54t-93 -92.5t-25.5 -128.5v-123h5681v-172h-5681v-160q0 -76 25.5 -131t93 -91t182.5 -53.5t293 -17.5h5110v-174h-5110q-197 0 -341 25.5t-239.5 81t-141.5 144.5 t-46 216zM2577 1462v49q0 41 10 62.5t39 46.5l369 307h145l369 -307q31 -25 40 -46.5t9 -62.5v-49h-146v41q0 27 -7 42.5t-27 31.5l-308 252l-305 -252q-20 -16 -26.5 -31.5t-6.5 -42.5v-41h-155z" />
<glyph unicode="&#xcb;" horiz-adv-x="6135" d="M123 0zM123 467v455q0 127 46 216t141.5 144t239.5 81t341 26h5108v-175h-5108q-178 0 -293 -17t-182.5 -54t-93 -92.5t-25.5 -128.5v-123h5681v-172h-5681v-160q0 -76 25.5 -131t93 -91t182.5 -53.5t293 -17.5h5110v-174h-5110q-197 0 -341 25.5t-239.5 81t-141.5 144.5 t-46 216zM2652 1513v312h188v-312h-188zM3297 1513v312h186v-312h-186z" />
<glyph unicode="&#xcc;" horiz-adv-x="638" d="M-104 1765v162l745 -319v-129zM0 0zM280 0v1389h174v-1389h-174z" />
<glyph unicode="&#xcd;" horiz-adv-x="647" d="M4 0zM4 1477v129l745 321v-160zM184 0v1389h174v-1389h-174z" />
<glyph unicode="&#xce;" horiz-adv-x="831" d="M-72 1462v49q0 41 10 62.5t39 46.5l369 307h145l369 -307q31 -25 40 -46.5t9 -62.5v-49h-146v41q0 27 -7 42.5t-27 31.5l-308 252l-305 -252q-20 -16 -26.5 -31.5t-6.5 -42.5v-41h-155zM0 0zM329 0v1389h174v-1389h-174z" />
<glyph unicode="&#xcf;" horiz-adv-x="696" d="M-65 1513v312h188v-312h-188zM0 0zM260 0v1389h174v-1389h-174zM580 1513v312h186v-312h-186z" />
<glyph unicode="&#xd0;" horiz-adv-x="6262" d="M80 627v172h164v504q0 86 86 86h5042q197 0 341 -26t239.5 -81t141.5 -144t46 -216v-455q0 -127 -46 -216t-141.5 -144.5t-239.5 -81t-341 -25.5h-5042q-86 0 -86 86v541h-164zM418 174h4954q178 0 294 17.5t183.5 53.5t93 91t25.5 131v455q0 74 -25.5 129t-93 92 t-183.5 54t-294 17h-4954v-415h2402v-172h-2402v-453z" />
<glyph unicode="&#xd1;" horiz-adv-x="6148" d="M143 0v922q0 127 46.5 216t141.5 144t239.5 81t340.5 26h4326q197 0 341 -26t239.5 -81t141.5 -144t46 -216v-922h-174v922q0 74 -26 129t-93.5 92t-182 54t-292.5 17h-4326q-178 0 -292.5 -17t-182 -54t-93.5 -92.5t-26 -128.5v-922h-174zM143 0zM2646 1636v131h854 v-131h-854z" />
<glyph unicode="&#xd2;" d="M123 0zM123 467v455q0 127 46 216t141.5 144t239.5 81t341 26h4325q197 0 341.5 -26t239.5 -81t141 -144t46 -216v-455q0 -127 -46 -216t-141 -144.5t-239.5 -81t-341.5 -25.5h-4325q-197 0 -341 25.5t-239.5 81t-141.5 144.5t-46 216zM297 467q0 -76 25.5 -131t93 -91 t182.5 -53.5t293 -17.5h4325q178 0 293 17.5t182.5 53.5t93 91t25.5 131v455q0 74 -25.5 129t-93 92t-182.5 54t-293 17h-4325q-178 0 -293 -17t-182.5 -54t-93 -92.5t-25.5 -128.5v-455zM2579 1765v162l745 -319v-129z" />
<glyph unicode="&#xd3;" d="M123 0zM123 467v455q0 127 46 216t141.5 144t239.5 81t341 26h4325q197 0 341.5 -26t239.5 -81t141 -144t46 -216v-455q0 -127 -46 -216t-141 -144.5t-239.5 -81t-341.5 -25.5h-4325q-197 0 -341 25.5t-239.5 81t-141.5 144.5t-46 216zM297 467q0 -76 25.5 -131t93 -91 t182.5 -53.5t293 -17.5h4325q178 0 293 17.5t182.5 53.5t93 91t25.5 131v455q0 74 -25.5 129t-93 92t-182.5 54t-293 17h-4325q-178 0 -293 -17t-182.5 -54t-93 -92.5t-25.5 -128.5v-455zM2783 1477v129l745 321v-160z" />
<glyph unicode="&#xd4;" d="M123 0zM123 467v455q0 127 46 216t141.5 144t239.5 81t341 26h4325q197 0 341.5 -26t239.5 -81t141 -144t46 -216v-455q0 -127 -46 -216t-141 -144.5t-239.5 -81t-341.5 -25.5h-4325q-197 0 -341 25.5t-239.5 81t-141.5 144.5t-46 216zM297 467q0 -76 25.5 -131t93 -91 t182.5 -53.5t293 -17.5h4325q178 0 293 17.5t182.5 53.5t93 91t25.5 131v455q0 74 -25.5 129t-93 92t-182.5 54t-293 17h-4325q-178 0 -293 -17t-182.5 -54t-93 -92.5t-25.5 -128.5v-455zM2562 1462v49q0 41 10 62.5t39 46.5l369 307h145l369 -307q31 -25 40 -46.5t9 -62.5 v-49h-146v41q0 27 -7 42.5t-27 31.5l-308 252l-305 -252q-20 -16 -26.5 -31.5t-6.5 -42.5v-41h-155z" />
<glyph unicode="&#xd5;" d="M123 0zM123 467v455q0 127 46 216t141.5 144t239.5 81t341 26h4325q197 0 341.5 -26t239.5 -81t141 -144t46 -216v-455q0 -127 -46 -216t-141 -144.5t-239.5 -81t-341.5 -25.5h-4325q-197 0 -341 25.5t-239.5 81t-141.5 144.5t-46 216zM297 467q0 -76 25.5 -131t93 -91 t182.5 -53.5t293 -17.5h4325q178 0 293 17.5t182.5 53.5t93 91t25.5 131v455q0 74 -25.5 129t-93 92t-182.5 54t-293 17h-4325q-178 0 -293 -17t-182.5 -54t-93 -92.5t-25.5 -128.5v-455zM2626 1636v131h854v-131h-854z" />
<glyph unicode="&#xd6;" d="M123 0zM123 467v455q0 127 46 216t141.5 144t239.5 81t341 26h4325q197 0 341.5 -26t239.5 -81t141 -144t46 -216v-455q0 -127 -46 -216t-141 -144.5t-239.5 -81t-341.5 -25.5h-4325q-197 0 -341 25.5t-239.5 81t-141.5 144.5t-46 216zM297 467q0 -76 25.5 -131t93 -91 t182.5 -53.5t293 -17.5h4325q178 0 293 17.5t182.5 53.5t93 91t25.5 131v455q0 74 -25.5 129t-93 92t-182.5 54t-293 17h-4325q-178 0 -293 -17t-182.5 -54t-93 -92.5t-25.5 -128.5v-455zM2638 1513v312h188v-312h-188zM3283 1513v312h186v-312h-186z" />
<glyph unicode="&#xd7;" horiz-adv-x="1163" d="M164 399l317 318l-315 315l102 101l316 -316l315 316l100 -101l-315 -315l315 -316l-100 -102l-315 315l-318 -317z" />
<glyph unicode="&#xd8;" d="M123 467v455q0 127 46 216t141.5 144t239.5 81t341 26h2974l321 241l105 -139l-138 -102h1063q197 0 341.5 -26t239.5 -81t141 -144t46 -216v-455q0 -127 -46 -216t-141 -144.5t-239.5 -81t-341.5 -25.5h-2904l-391 -295l-106 141l202 154h-1126q-197 0 -341 25.5 t-239.5 81t-141.5 144.5t-46 216zM297 467q0 -76 25.5 -131t93 -91t182.5 -53.5t293 -17.5h1358l1384 1040h-2742q-178 0 -293 -17t-182.5 -54t-93 -92.5t-25.5 -128.5v-455zM2544 174h2672q178 0 293 17.5t182.5 53.5t93 91t25.5 131v455q0 74 -25.5 129t-93 92t-182.5 54 t-293 17h-1292z" />
<glyph unicode="&#xd9;" horiz-adv-x="6109" d="M143 0zM143 467v922h174v-922q0 -76 26 -131t93.5 -91t182 -53.5t292.5 -17.5h4287q178 0 292.5 17.5t182.5 53.5t93.5 91t25.5 131v922h174v-922q0 -127 -46 -216t-141.5 -144.5t-240 -81t-340.5 -25.5h-4287q-197 0 -341 25.5t-239 81t-141.5 144.5t-46.5 216z M2579 1765v162l745 -319v-129z" />
<glyph unicode="&#xda;" horiz-adv-x="6109" d="M143 0zM143 467v922h174v-922q0 -76 26 -131t93.5 -91t182 -53.5t292.5 -17.5h4287q178 0 292.5 17.5t182.5 53.5t93.5 91t25.5 131v922h174v-922q0 -127 -46 -216t-141.5 -144.5t-240 -81t-340.5 -25.5h-4287q-197 0 -341 25.5t-239 81t-141.5 144.5t-46.5 216z M2783 1477v129l745 321v-160z" />
<glyph unicode="&#xdb;" horiz-adv-x="6109" d="M143 0zM143 467v922h174v-922q0 -76 26 -131t93.5 -91t182 -53.5t292.5 -17.5h4287q178 0 292.5 17.5t182.5 53.5t93.5 91t25.5 131v922h174v-922q0 -127 -46 -216t-141.5 -144.5t-240 -81t-340.5 -25.5h-4287q-197 0 -341 25.5t-239 81t-141.5 144.5t-46.5 216z M2564 1462v49q0 41 10 62.5t39 46.5l369 307h145l369 -307q31 -25 40 -46.5t9 -62.5v-49h-146v41q0 27 -7 42.5t-27 31.5l-308 252l-305 -252q-20 -16 -26.5 -31.5t-6.5 -42.5v-41h-155z" />
<glyph unicode="&#xdc;" horiz-adv-x="6109" d="M143 0zM143 467v922h174v-922q0 -76 26 -131t93.5 -91t182 -53.5t292.5 -17.5h4287q178 0 292.5 17.5t182.5 53.5t93.5 91t25.5 131v922h174v-922q0 -127 -46 -216t-141.5 -144.5t-240 -81t-340.5 -25.5h-4287q-197 0 -341 25.5t-239 81t-141.5 144.5t-46.5 216z M2638 1513v312h188v-312h-188zM3283 1513v312h186v-312h-186z" />
<glyph unicode="&#xdd;" horiz-adv-x="6027" d="M102 0zM102 1051v338h174v-338q0 -74 26 -129.5t93.5 -92t182 -54t292.5 -17.5h4285q178 0 293.5 17.5t183.5 54t93.5 92t25.5 129.5v338h174v-338q0 -127 -46 -216.5t-141.5 -144.5t-241 -79.5t-341.5 -24.5h-2054v-586h-174v586h-2057q-197 0 -341 24.5t-239 79.5 t-141.5 144.5t-46.5 216.5zM2742 1477v129l745 321v-160z" />
<glyph unicode="&#xde;" horiz-adv-x="6074" d="M164 0v1389h174v-252h4970q186 0 314.5 -23.5t205 -68t110.5 -109t34 -145.5v-132q0 -82 -34 -146t-110.5 -108.5t-204.5 -68t-315 -23.5h-4970v-313h-174zM338 487h4970q137 0 231.5 10.5t152 32t82 53t24.5 76.5v132q0 45 -24.5 76.5t-82 53t-151.5 32t-232 10.5h-4970 v-476z" />
<glyph unicode="&#xdf;" horiz-adv-x="12296" d="M104 0zM104 973v69q0 82 34 146.5t111 108.5t204 68t315 24h5247v-175h-5247q-137 0 -231.5 -10t-151.5 -31.5t-81.5 -53.5t-24.5 -77v-69q0 -45 24.5 -77t81.5 -53.5t151.5 -31.5t231.5 -10h4624q186 0 313.5 -23.5t204 -67.5t110.5 -107.5t34 -145.5v-111 q0 -82 -34 -146.5t-110.5 -108.5t-203.5 -67.5t-314 -23.5h-5224v174h5224q137 0 231.5 10.5t152 31t82 53t24.5 77.5v111q0 45 -24.5 76.5t-82 53t-151.5 32t-232 10.5h-4624q-188 0 -315 22.5t-204 66.5t-111 108.5t-34 146.5zM6252 973v69q0 82 34 146.5t111 108.5 t204 68t315 24h5247v-175h-5247q-137 0 -231.5 -10t-151.5 -31.5t-81.5 -53.5t-24.5 -77v-69q0 -45 24.5 -77t81.5 -53.5t151.5 -31.5t231.5 -10h4624q186 0 313.5 -23.5t204 -67.5t110.5 -107.5t34 -145.5v-111q0 -82 -34 -146.5t-110.5 -108.5t-203.5 -67.5t-314 -23.5 h-5224v174h5224q137 0 231.5 10.5t152 31t82 53t24.5 77.5v111q0 45 -24.5 76.5t-82 53t-151.5 32t-232 10.5h-4624q-188 0 -315 22.5t-204 66.5t-111 108.5t-34 146.5z" />
<glyph unicode="&#xe0;" horiz-adv-x="6223" d="M164 0v1303q0 86 86 86h5724q86 0 86 -86v-1303h-172v608h-5550v-608h-174zM164 0zM338 782h5550v432h-5550v-432zM2636 1765v162l745 -319v-129z" />
<glyph unicode="&#xe1;" horiz-adv-x="6223" d="M164 0v1303q0 86 86 86h5724q86 0 86 -86v-1303h-172v608h-5550v-608h-174zM164 0zM338 782h5550v432h-5550v-432zM2841 1477v129l745 321v-160z" />
<glyph unicode="&#xe2;" horiz-adv-x="6223" d="M164 0v1303q0 86 86 86h5724q86 0 86 -86v-1303h-172v608h-5550v-608h-174zM164 0zM338 782h5550v432h-5550v-432zM2622 1462v49q0 41 10 62.5t39 46.5l369 307h145l369 -307q31 -25 40 -46.5t9 -62.5v-49h-146v41q0 27 -7 42.5t-27 31.5l-308 252l-305 -252 q-20 -16 -26.5 -31.5t-6.5 -42.5v-41h-155z" />
<glyph unicode="&#xe3;" horiz-adv-x="6223" d="M164 0v1303q0 86 86 86h5724q86 0 86 -86v-1303h-172v608h-5550v-608h-174zM164 0zM338 782h5550v432h-5550v-432zM2685 1636v131h854v-131h-854z" />
<glyph unicode="&#xe4;" horiz-adv-x="6223" d="M164 0v1303q0 86 86 86h5724q86 0 86 -86v-1303h-172v608h-5550v-608h-174zM164 0zM338 782h5550v432h-5550v-432zM2695 1513v312h188v-312h-188zM3340 1513v312h186v-312h-186z" />
<glyph unicode="&#xe5;" horiz-adv-x="6223" d="M164 0v1303q0 86 86 86h5724q86 0 86 -86v-1303h-172v608h-5550v-608h-174zM164 0zM338 782h5550v432h-5550v-432zM2874 1587v215q0 66 26.5 95.5t94.5 29.5h235q70 0 95.5 -29.5t25.5 -95.5v-215q0 -66 -25.5 -95.5t-95.5 -29.5h-235q-68 0 -94.5 30t-26.5 95z M2978 1616q0 -31 8.5 -41t38.5 -10h177q29 0 37 9t8 42v166q0 31 -8.5 39t-34.5 8h-183q-27 0 -35 -8.5t-8 -42.5v-162z" />
<glyph unicode="&#xe6;" horiz-adv-x="11079" d="M164 0v1303q0 86 86 86h5314q86 0 86 -86v-29q94 59 242 87t352 28h4698v-175h-4698q-174 0 -287.5 -17t-181 -51t-95.5 -87t-30 -123v-115h5272v-182h-5272v-172q0 -76 26 -131t93.5 -91t182 -53.5t292.5 -17.5h4701v-174h-4701q-205 0 -352 27.5t-242 87.5v-115h-172 v639h-5140v-639h-174zM164 0zM338 821h5140v393h-5140v-393z" />
<glyph unicode="&#xe7;" horiz-adv-x="5892" d="M123 0zM123 467v455q0 127 46 216t141.5 144t239.5 81t341 26h4934v-175h-4934q-178 0 -293 -17t-182.5 -54t-93 -92.5t-25.5 -128.5v-455q0 -76 25.5 -131t93 -91t182.5 -53.5t293 -17.5h4934v-174h-4934q-197 0 -341 25.5t-239.5 81t-141.5 144.5t-46 216zM2826 -528 l53 184q8 29 10 55.5t2 52.5v113h174v-123q0 -47 -20 -106l-59 -176h-160z" />
<glyph unicode="&#xe8;" horiz-adv-x="6135" d="M123 0zM123 467v455q0 127 46 216t141.5 144t239.5 81t341 26h5108v-175h-5108q-178 0 -293 -17t-182.5 -54t-93 -92.5t-25.5 -128.5v-123h5681v-172h-5681v-160q0 -76 25.5 -131t93 -91t182.5 -53.5t293 -17.5h5110v-174h-5110q-197 0 -341 25.5t-239.5 81t-141.5 144.5 t-46 216zM2593 1765v162l745 -319v-129z" />
<glyph unicode="&#xe9;" horiz-adv-x="6135" d="M123 0zM123 467v455q0 127 46 216t141.5 144t239.5 81t341 26h5108v-175h-5108q-178 0 -293 -17t-182.5 -54t-93 -92.5t-25.5 -128.5v-123h5681v-172h-5681v-160q0 -76 25.5 -131t93 -91t182.5 -53.5t293 -17.5h5110v-174h-5110q-197 0 -341 25.5t-239.5 81t-141.5 144.5 t-46 216zM2798 1477v129l745 321v-160z" />
<glyph unicode="&#xea;" horiz-adv-x="6135" d="M123 0zM123 467v455q0 127 46 216t141.5 144t239.5 81t341 26h5108v-175h-5108q-178 0 -293 -17t-182.5 -54t-93 -92.5t-25.5 -128.5v-123h5681v-172h-5681v-160q0 -76 25.5 -131t93 -91t182.5 -53.5t293 -17.5h5110v-174h-5110q-197 0 -341 25.5t-239.5 81t-141.5 144.5 t-46 216zM2577 1462v49q0 41 10 62.5t39 46.5l369 307h145l369 -307q31 -25 40 -46.5t9 -62.5v-49h-146v41q0 27 -7 42.5t-27 31.5l-308 252l-305 -252q-20 -16 -26.5 -31.5t-6.5 -42.5v-41h-155z" />
<glyph unicode="&#xeb;" horiz-adv-x="6135" d="M123 0zM123 467v455q0 127 46 216t141.5 144t239.5 81t341 26h5108v-175h-5108q-178 0 -293 -17t-182.5 -54t-93 -92.5t-25.5 -128.5v-123h5681v-172h-5681v-160q0 -76 25.5 -131t93 -91t182.5 -53.5t293 -17.5h5110v-174h-5110q-197 0 -341 25.5t-239.5 81t-141.5 144.5 t-46 216zM2652 1513v312h188v-312h-188zM3297 1513v312h186v-312h-186z" />
<glyph unicode="&#xec;" horiz-adv-x="638" d="M-104 1765v162l745 -319v-129zM0 0zM280 0v1389h174v-1389h-174z" />
<glyph unicode="&#xed;" horiz-adv-x="647" d="M4 0zM4 1477v129l745 321v-160zM184 0v1389h174v-1389h-174z" />
<glyph unicode="&#xee;" horiz-adv-x="831" d="M-72 1462v49q0 41 10 62.5t39 46.5l369 307h145l369 -307q31 -25 40 -46.5t9 -62.5v-49h-146v41q0 27 -7 42.5t-27 31.5l-308 252l-305 -252q-20 -16 -26.5 -31.5t-6.5 -42.5v-41h-155zM0 0zM329 0v1389h174v-1389h-174z" />
<glyph unicode="&#xef;" horiz-adv-x="696" d="M-65 1513v312h188v-312h-188zM0 0zM260 0v1389h174v-1389h-174zM580 1513v312h186v-312h-186z" />
<glyph unicode="&#xf0;" horiz-adv-x="6262" d="M80 0zM80 627v172h164v504q0 86 86 86h5042q197 0 341 -26t239.5 -81t141.5 -144t46 -216v-455q0 -127 -46 -216t-141.5 -144.5t-239.5 -81t-341 -25.5h-5042q-86 0 -86 86v541h-164zM418 174h4954q178 0 294 17.5t183.5 53.5t93 91t25.5 131v455q0 74 -25.5 129t-93 92 t-183.5 54t-294 17h-4954v-415h2402v-172h-2402v-453z" />
<glyph unicode="&#xf1;" horiz-adv-x="6148" d="M143 0v922q0 127 46.5 216t141.5 144t239.5 81t340.5 26h4326q197 0 341 -26t239.5 -81t141.5 -144t46 -216v-922h-174v922q0 74 -26 129t-93.5 92t-182 54t-292.5 17h-4326q-178 0 -292.5 -17t-182 -54t-93.5 -92.5t-26 -128.5v-922h-174zM143 0zM2646 1636v131h854 v-131h-854z" />
<glyph unicode="&#xf2;" d="M123 0zM123 467v455q0 127 46 216t141.5 144t239.5 81t341 26h4325q197 0 341.5 -26t239.5 -81t141 -144t46 -216v-455q0 -127 -46 -216t-141 -144.5t-239.5 -81t-341.5 -25.5h-4325q-197 0 -341 25.5t-239.5 81t-141.5 144.5t-46 216zM297 467q0 -76 25.5 -131t93 -91 t182.5 -53.5t293 -17.5h4325q178 0 293 17.5t182.5 53.5t93 91t25.5 131v455q0 74 -25.5 129t-93 92t-182.5 54t-293 17h-4325q-178 0 -293 -17t-182.5 -54t-93 -92.5t-25.5 -128.5v-455zM2579 1765v162l745 -319v-129z" />
<glyph unicode="&#xf3;" d="M123 0zM123 467v455q0 127 46 216t141.5 144t239.5 81t341 26h4325q197 0 341.5 -26t239.5 -81t141 -144t46 -216v-455q0 -127 -46 -216t-141 -144.5t-239.5 -81t-341.5 -25.5h-4325q-197 0 -341 25.5t-239.5 81t-141.5 144.5t-46 216zM297 467q0 -76 25.5 -131t93 -91 t182.5 -53.5t293 -17.5h4325q178 0 293 17.5t182.5 53.5t93 91t25.5 131v455q0 74 -25.5 129t-93 92t-182.5 54t-293 17h-4325q-178 0 -293 -17t-182.5 -54t-93 -92.5t-25.5 -128.5v-455zM2783 1477v129l745 321v-160z" />
<glyph unicode="&#xf4;" d="M123 0zM123 467v455q0 127 46 216t141.5 144t239.5 81t341 26h4325q197 0 341.5 -26t239.5 -81t141 -144t46 -216v-455q0 -127 -46 -216t-141 -144.5t-239.5 -81t-341.5 -25.5h-4325q-197 0 -341 25.5t-239.5 81t-141.5 144.5t-46 216zM297 467q0 -76 25.5 -131t93 -91 t182.5 -53.5t293 -17.5h4325q178 0 293 17.5t182.5 53.5t93 91t25.5 131v455q0 74 -25.5 129t-93 92t-182.5 54t-293 17h-4325q-178 0 -293 -17t-182.5 -54t-93 -92.5t-25.5 -128.5v-455zM2562 1462v49q0 41 10 62.5t39 46.5l369 307h145l369 -307q31 -25 40 -46.5t9 -62.5 v-49h-146v41q0 27 -7 42.5t-27 31.5l-308 252l-305 -252q-20 -16 -26.5 -31.5t-6.5 -42.5v-41h-155z" />
<glyph unicode="&#xf5;" d="M123 0zM123 467v455q0 127 46 216t141.5 144t239.5 81t341 26h4325q197 0 341.5 -26t239.5 -81t141 -144t46 -216v-455q0 -127 -46 -216t-141 -144.5t-239.5 -81t-341.5 -25.5h-4325q-197 0 -341 25.5t-239.5 81t-141.5 144.5t-46 216zM297 467q0 -76 25.5 -131t93 -91 t182.5 -53.5t293 -17.5h4325q178 0 293 17.5t182.5 53.5t93 91t25.5 131v455q0 74 -25.5 129t-93 92t-182.5 54t-293 17h-4325q-178 0 -293 -17t-182.5 -54t-93 -92.5t-25.5 -128.5v-455zM2626 1636v131h854v-131h-854z" />
<glyph unicode="&#xf6;" d="M123 0zM123 467v455q0 127 46 216t141.5 144t239.5 81t341 26h4325q197 0 341.5 -26t239.5 -81t141 -144t46 -216v-455q0 -127 -46 -216t-141 -144.5t-239.5 -81t-341.5 -25.5h-4325q-197 0 -341 25.5t-239.5 81t-141.5 144.5t-46 216zM297 467q0 -76 25.5 -131t93 -91 t182.5 -53.5t293 -17.5h4325q178 0 293 17.5t182.5 53.5t93 91t25.5 131v455q0 74 -25.5 129t-93 92t-182.5 54t-293 17h-4325q-178 0 -293 -17t-182.5 -54t-93 -92.5t-25.5 -128.5v-455zM2638 1513v312h188v-312h-188zM3283 1513v312h186v-312h-186z" />
<glyph unicode="&#xf7;" horiz-adv-x="1363" d="M164 168zM164 645v143h1036v-143h-1036zM594 168v354h174v-354h-174zM594 911v354h174v-354h-174z" />
<glyph unicode="&#xf8;" d="M123 0zM123 467v455q0 127 46 216t141.5 144t239.5 81t341 26h2974l321 241l105 -139l-138 -102h1063q197 0 341.5 -26t239.5 -81t141 -144t46 -216v-455q0 -127 -46 -216t-141 -144.5t-239.5 -81t-341.5 -25.5h-2904l-391 -295l-106 141l202 154h-1126q-197 0 -341 25.5 t-239.5 81t-141.5 144.5t-46 216zM297 467q0 -76 25.5 -131t93 -91t182.5 -53.5t293 -17.5h1358l1384 1040h-2742q-178 0 -293 -17t-182.5 -54t-93 -92.5t-25.5 -128.5v-455zM2544 174h2672q178 0 293 17.5t182.5 53.5t93 91t25.5 131v455q0 74 -25.5 129t-93 92t-182.5 54 t-293 17h-1292z" />
<glyph unicode="&#xf9;" horiz-adv-x="6109" d="M143 0zM143 467v922h174v-922q0 -76 26 -131t93.5 -91t182 -53.5t292.5 -17.5h4287q178 0 292.5 17.5t182.5 53.5t93.5 91t25.5 131v922h174v-922q0 -127 -46 -216t-141.5 -144.5t-240 -81t-340.5 -25.5h-4287q-197 0 -341 25.5t-239 81t-141.5 144.5t-46.5 216z M2579 1765v162l745 -319v-129z" />
<glyph unicode="&#xfa;" horiz-adv-x="6109" d="M143 0zM143 467v922h174v-922q0 -76 26 -131t93.5 -91t182 -53.5t292.5 -17.5h4287q178 0 292.5 17.5t182.5 53.5t93.5 91t25.5 131v922h174v-922q0 -127 -46 -216t-141.5 -144.5t-240 -81t-340.5 -25.5h-4287q-197 0 -341 25.5t-239 81t-141.5 144.5t-46.5 216z M2783 1477v129l745 321v-160z" />
<glyph unicode="&#xfb;" horiz-adv-x="6109" d="M143 0zM143 467v922h174v-922q0 -76 26 -131t93.5 -91t182 -53.5t292.5 -17.5h4287q178 0 292.5 17.5t182.5 53.5t93.5 91t25.5 131v922h174v-922q0 -127 -46 -216t-141.5 -144.5t-240 -81t-340.5 -25.5h-4287q-197 0 -341 25.5t-239 81t-141.5 144.5t-46.5 216z M2564 1462v49q0 41 10 62.5t39 46.5l369 307h145l369 -307q31 -25 40 -46.5t9 -62.5v-49h-146v41q0 27 -7 42.5t-27 31.5l-308 252l-305 -252q-20 -16 -26.5 -31.5t-6.5 -42.5v-41h-155z" />
<glyph unicode="&#xfc;" horiz-adv-x="6109" d="M143 0zM143 467v922h174v-922q0 -76 26 -131t93.5 -91t182 -53.5t292.5 -17.5h4287q178 0 292.5 17.5t182.5 53.5t93.5 91t25.5 131v922h174v-922q0 -127 -46 -216t-141.5 -144.5t-240 -81t-340.5 -25.5h-4287q-197 0 -341 25.5t-239 81t-141.5 144.5t-46.5 216z M2638 1513v312h188v-312h-188zM3283 1513v312h186v-312h-186z" />
<glyph unicode="&#xfd;" horiz-adv-x="6027" d="M102 0zM102 1051v338h174v-338q0 -74 26 -129.5t93.5 -92t182 -54t292.5 -17.5h4285q178 0 293.5 17.5t183.5 54t93.5 92t25.5 129.5v338h174v-338q0 -127 -46 -216.5t-141.5 -144.5t-241 -79.5t-341.5 -24.5h-2054v-586h-174v586h-2057q-197 0 -341 24.5t-239 79.5 t-141.5 144.5t-46.5 216.5zM2742 1477v129l745 321v-160z" />
<glyph unicode="&#xfe;" horiz-adv-x="6074" d="M164 0v1389h174v-252h4970q186 0 314.5 -23.5t205 -68t110.5 -109t34 -145.5v-132q0 -82 -34 -146t-110.5 -108.5t-204.5 -68t-315 -23.5h-4970v-313h-174zM164 0zM338 487h4970q137 0 231.5 10.5t152 32t82 53t24.5 76.5v132q0 45 -24.5 76.5t-82 53t-151.5 32 t-232 10.5h-4970v-476z" />
<glyph unicode="&#xff;" horiz-adv-x="6027" d="M102 0zM102 1051v338h174v-338q0 -74 26 -129.5t93.5 -92t182 -54t292.5 -17.5h4285q178 0 293.5 17.5t183.5 54t93.5 92t25.5 129.5v338h174v-338q0 -127 -46 -216.5t-141.5 -144.5t-241 -79.5t-341.5 -24.5h-2054v-586h-174v586h-2057q-197 0 -341 24.5t-239 79.5 t-141.5 144.5t-46.5 216.5zM2597 1513v312h188v-312h-188zM3242 1513v312h186v-312h-186z" />
<glyph unicode="&#x152;" horiz-adv-x="11003" d="M123 467v455q0 127 46 216t141.5 144t239.5 81t341 26h3916q260 0 427 -44.5t253 -146.5q86 102 252.5 146.5t429.5 44.5h4698v-175h-4698q-178 0 -293 -17t-182.5 -54t-93 -92.5t-25.5 -128.5v-123h5271v-172h-5271v-160q0 -76 25.5 -131t93 -91t182 -53.5t293.5 -17.5 h4700v-174h-4700q-262 0 -429 44t-253 144q-86 -100 -253 -144t-427 -44h-3916q-197 0 -341 25.5t-239.5 81t-141.5 144.5t-46 216zM297 467q0 -76 25.5 -131t93 -91t182.5 -53.5t293 -17.5h3916q178 0 292.5 17.5t182 53.5t93.5 91t26 131v455q0 74 -26 129t-93.5 92 t-182 54t-292.5 17h-3916q-178 0 -293 -17t-182.5 -54t-93 -92.5t-25.5 -128.5v-455z" />
<glyph unicode="&#x153;" horiz-adv-x="11003" d="M123 0zM123 467v455q0 127 46 216t141.5 144t239.5 81t341 26h3916q260 0 427 -44.5t253 -146.5q86 102 252.5 146.5t429.5 44.5h4698v-175h-4698q-178 0 -293 -17t-182.5 -54t-93 -92.5t-25.5 -128.5v-123h5271v-172h-5271v-160q0 -76 25.5 -131t93 -91t182 -53.5 t293.5 -17.5h4700v-174h-4700q-262 0 -429 44t-253 144q-86 -100 -253 -144t-427 -44h-3916q-197 0 -341 25.5t-239.5 81t-141.5 144.5t-46 216zM297 467q0 -76 25.5 -131t93 -91t182.5 -53.5t293 -17.5h3916q178 0 292.5 17.5t182 53.5t93.5 91t26 131v455q0 74 -26 129 t-93.5 92t-182 54t-292.5 17h-3916q-178 0 -293 -17t-182.5 -54t-93 -92.5t-25.5 -128.5v-455z" />
<glyph unicode="&#x178;" horiz-adv-x="6027" d="M102 0zM102 1051v338h174v-338q0 -74 26 -129.5t93.5 -92t182 -54t292.5 -17.5h4285q178 0 293.5 17.5t183.5 54t93.5 92t25.5 129.5v338h174v-338q0 -127 -46 -216.5t-141.5 -144.5t-241 -79.5t-341.5 -24.5h-2054v-586h-174v586h-2057q-197 0 -341 24.5t-239 79.5 t-141.5 144.5t-46.5 216.5zM2597 1513v312h188v-312h-188zM3242 1513v312h186v-312h-186z" />
<glyph unicode="&#x2c6;" horiz-adv-x="1308" d="M164 1462v49q0 41 10 62.5t39 46.5l369 307h145l369 -307q31 -25 40 -46.5t9 -62.5v-49h-146v41q0 27 -7 42.5t-27 31.5l-308 252l-305 -252q-20 -16 -26.5 -31.5t-6.5 -42.5v-41h-155z" />
<glyph unicode="&#x2dc;" horiz-adv-x="1181" d="M164 1636v131h854v-131h-854z" />
<glyph unicode="&#x2000;" horiz-adv-x="963" />
<glyph unicode="&#x2001;" horiz-adv-x="1927" />
<glyph unicode="&#x2002;" horiz-adv-x="963" />
<glyph unicode="&#x2003;" horiz-adv-x="1927" />
<glyph unicode="&#x2004;" horiz-adv-x="642" />
<glyph unicode="&#x2005;" horiz-adv-x="481" />
<glyph unicode="&#x2006;" horiz-adv-x="321" />
<glyph unicode="&#x2007;" horiz-adv-x="321" />
<glyph unicode="&#x2008;" horiz-adv-x="240" />
<glyph unicode="&#x2009;" horiz-adv-x="385" />
<glyph unicode="&#x200a;" horiz-adv-x="107" />
<glyph unicode="&#x2010;" horiz-adv-x="1374" d="M164 639v182h1046v-182h-1046z" />
<glyph unicode="&#x2011;" horiz-adv-x="1374" d="M164 639v182h1046v-182h-1046z" />
<glyph unicode="&#x2012;" horiz-adv-x="1374" d="M164 639v182h1046v-182h-1046z" />
<glyph unicode="&#x2013;" horiz-adv-x="3438" d="M164 639v182h3111v-182h-3111z" />
<glyph unicode="&#x2014;" horiz-adv-x="4509" d="M164 639v182h4182v-182h-4182z" />
<glyph unicode="&#x2018;" horiz-adv-x="567" d="M164 1202v187h174v-177q0 -27 2 -53t10 -55l53 -184h-159l-60 176q-20 59 -20 106z" />
<glyph unicode="&#x2019;" horiz-adv-x="567" d="M164 920l53 184q8 29 10 55.5t2 52.5v177h174v-187q0 -47 -20 -106l-59 -176h-160z" />
<glyph unicode="&#x201a;" horiz-adv-x="567" d="M164 -160l53 185q8 29 10 55t2 53v176h174v-186q0 -47 -20 -107l-59 -176h-160z" />
<glyph unicode="&#x201c;" horiz-adv-x="1134" d="M164 920zM164 1202v187h174v-177q0 -27 2 -53t10 -55l53 -184h-159l-60 176q-20 59 -20 106zM731 1202v187h174v-177q0 -27 2 -53t10 -55l53 -184h-159l-60 176q-20 59 -20 106z" />
<glyph unicode="&#x201d;" horiz-adv-x="1134" d="M164 920l53 184q8 29 10 55.5t2 52.5v177h174v-187q0 -47 -20 -106l-59 -176h-160zM164 920zM731 920l53 184q8 29 10 55.5t2 52.5v177h174v-187q0 -47 -20 -106l-59 -176h-160z" />
<glyph unicode="&#x201e;" horiz-adv-x="1134" d="M164 0zM164 -160l53 185q8 29 10 55t2 53v176h174v-186q0 -47 -20 -107l-59 -176h-160zM731 -160l53 185q8 29 10 55t2 53v176h174v-186q0 -47 -20 -107l-59 -176h-160z" />
<glyph unicode="&#x2022;" horiz-adv-x="735" d="M164 629v194q0 59 23.5 85t84.5 26h193q61 0 83.5 -25.5t22.5 -85.5v-194q0 -59 -22.5 -86t-83.5 -27h-193q-61 0 -84.5 26.5t-23.5 86.5z" />
<glyph unicode="&#x2026;" horiz-adv-x="2054" d="M203 0v354h174v-354h-174zM203 0zM940 0v354h174v-354h-174zM1677 0v354h174v-354h-174z" />
<glyph unicode="&#x202f;" horiz-adv-x="385" />
<glyph unicode="&#x2039;" horiz-adv-x="626" d="M31 723l452 455l113 -107l-363 -348l363 -350l-113 -107z" />
<glyph unicode="&#x203a;" horiz-adv-x="626" d="M31 373l362 350l-362 348l112 107l453 -455l-453 -457z" />
<glyph unicode="&#x205f;" horiz-adv-x="481" />
<glyph unicode="&#x20ac;" horiz-adv-x="3926" d="M164 481l82 144h196v184h-278l82 143h196q10 238 198.5 337.5t569.5 99.5h2552l-137 -175h-2415q-170 0 -281.5 -16t-179 -49t-98 -82t-35.5 -115h2802l-113 -143h-2689v-184h2546l-113 -144h-2433v-14q0 -76 26 -131t93.5 -91t182 -53.5t292.5 -17.5h2497v-174h-2497 q-197 0 -341 25.5t-239 81t-141.5 144.5t-46.5 216v14h-278z" />
<glyph unicode="&#x2122;" horiz-adv-x="1714" d="M164 1278v108h508v-108h-187v-619h-127v619h-194zM795 659v727h75q23 0 40.5 -7t29.5 -29l234 -424l229 422q10 23 26.5 30.5t47.5 7.5h73v-727h-114v523l-201 -367q-10 -18 -19.5 -25.5t-31.5 -7.5h-21q-25 0 -34 7.5t-19 25.5l-201 367v-523h-114z" />
<glyph unicode="&#x25fc;" horiz-adv-x="1392" d="M0 0v1393h1393v-1393h-1393z" />
</font>
</defs>
</svg>
